<svg width="32" height="32" viewBox="0 0 32 32" fill="none" xmlns="http://www.w3.org/2000/svg">
<path d="M16 20V28" stroke="white" stroke-width="4"/>
<path d="M23 20V28" stroke="white" stroke-width="4"/>
<path d="M9 20V28" stroke="white" stroke-width="4"/>
<path d="M12.0741 9.5C12.0741 10.7131 11.5922 11.8766 10.7344 12.7344C9.87655 13.5922 8.71312 14.0741 7.5 14.0741C6.28688 14.0741 5.12345 13.5922 4.26564 12.7344C3.40784 11.8766 2.92593 10.7131 2.92593 9.5" stroke="white" stroke-width="3.85185"/>
<path d="M2.92593 9.5C2.92593 8.28688 3.40784 7.12345 4.26564 6.26564C5.12345 5.40784 6.28688 4.92593 7.5 4.92593C8.71312 4.92593 9.87655 5.40784 10.7344 6.26564C11.5922 7.12345 12.0741 8.28688 12.0741 9.5" stroke="#383838" stroke-width="3.85185"/>
<path d="M29.0741 9.5C29.0741 10.7131 28.5922 11.8766 27.7344 12.7344C26.8766 13.5922 25.7131 14.0741 24.5 14.0741C23.2869 14.0741 22.1234 13.5922 21.2656 12.7344C20.4078 11.8766 19.9259 10.7131 19.9259 9.5" stroke="white" stroke-width="3.85185"/>
<path d="M19.9259 9.5C19.9259 8.28688 20.4078 7.12345 21.2656 6.26564C22.1234 5.40784 23.2869 4.92593 24.5 4.92593C25.7131 4.92593 26.8766 5.40784 27.7344 6.26564C28.5922 7.12345 29.0741 8.28688 29.0741 9.5" stroke="#383838" stroke-width="3.85185"/>
<rect x="2" y="20" width="28" height="7" rx="3.5" stroke="#4B31F2" stroke-width="4"/>
</svg>
